<svg width="105" height="24" viewBox="0 0 105 24" fill="none" xmlns="http://www.w3.org/2000/svg">
<path d="M10.6676 1.99951L21.3351 12.6662L10.6676 23.3328L0 12.6662L10.6676 1.99951Z" fill="#4B2AA0"/>
<path d="M16.6676 21.3335L27.3351 10.6668L16.6676 0.000162125L6 10.6668L16.6676 21.3335Z" fill="#9088D8"/>
<path d="M40.567 16.8265C37.479 16.8265 36.135 15.4025 36.135 13.3385V13.0665H37.831V13.2425C37.831 14.5705 38.391 15.2425 40.631 15.2425C42.215 15.2425 42.791 14.8105 42.791 13.8185C42.791 12.8425 42.471 12.4905 40.823 12.1545L38.999 11.7865C37.159 11.4345 36.167 10.5385 36.167 8.8425C36.167 7.2585 37.399 5.7865 40.167 5.7865C43.127 5.7865 44.311 7.4505 44.311 9.3545V9.5465H42.615V9.3705C42.615 8.0585 42.039 7.3705 40.119 7.3705C38.535 7.3705 37.895 7.8185 37.895 8.7625C37.895 9.7385 38.327 10.0105 39.799 10.3305L41.623 10.7145C43.639 11.1305 44.519 12.1385 44.519 13.7545C44.519 15.4345 43.303 16.8265 40.567 16.8265ZM50.0206 16.6665H48.3086V12.6825L44.1486 5.9465H46.1166L48.1486 9.2585L49.1406 10.9385H49.2526L50.2286 9.2585L52.2446 5.9465H54.1966L50.0206 12.7145V16.6665ZM56.4433 16.6665H54.7153V5.9465H56.5713L60.6353 12.0905L61.7713 13.8025H61.8993V5.9465H63.6273V16.6665H61.7713L57.7233 10.6185L56.5553 8.8745H56.4433V16.6665ZM66.1151 16.6665H64.3071L68.4831 5.9465H70.9631L75.1391 16.6665H73.2671L72.1791 13.8825H67.2031L66.1151 16.6665ZM68.9311 9.4985L67.8111 12.3305H71.5711L70.4511 9.4985L69.7631 7.5145H69.6351L68.9311 9.4985ZM77.584 16.6665H75.856V5.9465H80.416C82.656 5.9465 84.304 7.2745 84.304 9.5785C84.304 11.8825 82.656 13.2105 80.416 13.2105H77.584V16.6665ZM80.624 7.4985H77.584V11.6585H80.624C82.032 11.6585 82.592 11.1145 82.592 9.5785C82.592 8.0425 82.032 7.4985 80.624 7.4985ZM89.9107 16.8265C86.8227 16.8265 85.4787 15.4025 85.4787 13.3385V13.0665H87.1747V13.2425C87.1747 14.5705 87.7347 15.2425 89.9747 15.2425C91.5587 15.2425 92.1347 14.8105 92.1347 13.8185C92.1347 12.8425 91.8147 12.4905 90.1667 12.1545L88.3427 11.7865C86.5027 11.4345 85.5107 10.5385 85.5107 8.8425C85.5107 7.2585 86.7427 5.7865 89.5107 5.7865C92.4707 5.7865 93.6547 7.4505 93.6547 9.3545V9.5465H91.9587V9.3705C91.9587 8.0585 91.3827 7.3705 89.4627 7.3705C87.8787 7.3705 87.2387 7.8185 87.2387 8.7625C87.2387 9.7385 87.6707 10.0105 89.1427 10.3305L90.9667 10.7145C92.9827 11.1305 93.8627 12.1385 93.8627 13.7545C93.8627 15.4345 92.6467 16.8265 89.9107 16.8265ZM102.77 16.6665H95.106V5.9465H102.77V7.4985H96.834V10.4905H102.53V12.0585H96.834V15.1145H102.77V16.6665Z" fill="white"/>
</svg>
